# xmcd
#
# Track frame offsets:
#	150
#	13479
#	23861
#	34256
#	41645
#	54720
#	65558
#	74737
#	86335
#	96214
#	111544
#	120061
#	127753
#	140325
#	151192
#	161888
#	174761
#	183506
#	193086
#	205542
#	213784
#
# Disc length: 2985 seconds
#
# Revision: 0
# Processed by: cddbd v1.4PL0 Copyright (c) Steve Scherf et al.
# Submitted via: EasyCDDAExtractor 4.6.9.1
#
DISCID=250ba715
DTITLE=RAYMOND ROULEAU - LES GRAND NOM DU WESTERN
DYEAR=1900
DGENRE=
TTITLE0=Lina
TTITLE1=Ton Jonc A Mon Doigt
TTITLE2=Ma Maison Dans Mon Valon
TTITLE3=Le Temp Passer
TTITLE4=La Grande Route
TTITLE5=Tu Etait a La Gare
TTITLE6=Triste Souvenir
TTITLE7=La Statue De Ste-Anne
TTITLE8=Voyage Et Destin
TTITLE9=Je Cherche Une Job
TTITLE10=Hello Central
TTITLE11=Ma Raison De Vivre
TTITLE12=Les Plus Beau Mot D'amour
TTITLE13=LouLou
TTITLE14=Cruel Jalousie
TTITLE15=Le Chauffeur de Taxi
TTITLE16=L'Anneau De Feu
TTITLE17=Tu Est Mon Soleil
TTITLE18=Diane Ma Fiancer
TTITLE19=Tu Refuse Mon Coeur
TTITLE20=La Fille Japonaise
EXTD=
EXTT0=
EXTT1=
EXTT2=
EXTT3=
EXTT4=
EXTT5=
EXTT6=
EXTT7=
EXTT8=
EXTT9=
EXTT10=
EXTT11=
EXTT12=
EXTT13=
EXTT14=
EXTT15=
EXTT16=
EXTT17=
EXTT18=
EXTT19=
EXTT20=
PLAYORDER=
